<svg width="24" height="25" viewBox="0 0 24 25" fill="none" xmlns="http://www.w3.org/2000/svg">
<path fill-rule="evenodd" clip-rule="evenodd" d="M0.00015 4.65586L7.0599 0.00976562L12.0001 4.16598L12 4.16608L12 4.16609L4.8819 8.5959L0.00015 4.65586ZM19.1181 8.59585L12 4.16609L12.0001 4.166L12.0001 4.16598L16.9403 0.00984113L24 4.65594L19.1182 8.59597L19.1181 8.59582L19.1181 8.59585ZM19.1181 8.59585L19.1182 8.59597L23.9998 12.5366L16.9401 17.1827L11.9999 13.0265L7.05975 17.1826L0 12.5365L4.88175 8.5965L12 13.0264L19.1181 8.59585ZM12.0145 13.9206L7.05997 18.0648L4.93972 16.6693V18.2333L12.0145 22.5098L19.0892 18.2333V16.6693L16.969 18.0648L12.0145 13.9206Z" fill="#0F82E2"/>
</svg>
