<svg width="24" height="25" viewBox="0 0 24 25" fill="none" xmlns="http://www.w3.org/2000/svg">
<path fill-rule="evenodd" clip-rule="evenodd" d="M21.4549 4.1852C21.2763 3.22746 20.7093 2.75571 20.1961 2.57046C19.6433 2.36947 18.5213 2.16172 17.1116 1.99447C15.9777 1.86097 14.645 1.87147 13.8397 1.89622C13.7433 1.23173 13.2794 0.624981 12.7595 0.414981C11.376 -0.144514 9.23723 -0.00951439 8.68891 0.144986C8.25265 0.267231 7.76932 0.518481 7.50039 0.904726C7.32036 1.16273 7.20382 1.49422 7.20307 1.95622C7.20307 2.17287 7.20819 2.63205 7.21334 3.09432L7.21652 3.38121C7.2221 3.83713 7.2282 4.25323 7.23011 4.38335L7.23011 4.38345L7.23071 4.4252C7.23071 4.91344 6.83554 5.31169 6.34623 5.31244H4.10291C3.62407 5.31244 3.25802 5.39344 2.97938 5.52019C2.69925 5.64844 2.50129 5.82018 2.35039 6.02343C2.05083 6.42768 1.99854 6.92567 2.00003 7.43417C2.00003 7.43417 2.00451 7.85042 2.10461 8.65441C2.18753 9.2769 2.85986 13.6261 3.49857 14.9484C3.74583 15.4628 3.91093 15.6773 4.39724 15.9038C5.48118 16.3703 7.95757 16.8886 9.1177 17.0371C9.30985 17.0617 9.49013 17.0909 9.65916 17.1182C10.5094 17.2556 11.0751 17.3471 11.4365 16.5863C11.438 16.5841 11.5231 16.3591 11.6404 16.0298C12.0169 14.8854 12.0692 13.8699 12.0692 13.1356C12.0692 13.0606 12.1783 13.0576 12.1783 13.1356C12.1783 13.1644 12.178 13.1973 12.1776 13.2338V13.2338C12.1719 13.8539 12.1565 15.5172 13.4609 15.9826C14.0062 16.1768 15.1372 16.3493 16.2862 16.4851C17.3253 16.6051 18.0798 17.0153 18.0798 19.6921C18.0798 21.3203 17.7391 21.5438 15.9582 21.5438L15.8258 21.5439C14.4804 21.545 13.9637 21.5454 13.9637 20.43C13.9637 19.5785 14.7315 19.5877 15.3822 19.5954H15.3823C15.4428 19.5961 15.5023 19.5968 15.5601 19.5968C15.7515 19.5968 15.735 19.507 15.6966 19.2971C15.674 19.1737 15.6437 19.0086 15.6437 18.7958C15.6437 18.5535 15.7077 18.3545 15.7557 18.2051C15.8209 18.0023 15.8568 17.8908 15.6632 17.8861C13.313 17.8208 11.9303 17.8831 11.9303 20.8335C11.9303 23.5125 12.9514 24.0098 16.2862 24.0098C18.9015 24.0098 19.8233 23.9235 20.9028 20.5605C21.1164 19.8961 21.6334 17.8703 21.9457 14.4676C22.1436 12.3166 21.7596 5.82393 21.4549 4.1852ZM16.8965 11.3619C16.5738 11.3506 16.263 11.3709 15.9732 11.4174C16.0546 10.7566 16.3265 9.94515 17.2894 9.9789C18.3554 10.0164 18.5048 11.0274 18.5086 11.7129C18.0589 11.5111 17.5023 11.3836 16.8965 11.3619ZM3.99907 4.65844H3.99758C3.44628 4.65844 2.98611 4.75219 2.60662 4.92469C2.58944 4.93219 2.46618 4.99294 2.37579 5.03794C2.37803 5.02894 2.384 5.01919 2.39222 5.01244L6.75112 0.672231C6.76009 0.663981 6.7683 0.659481 6.77727 0.658731L6.70032 0.802726C6.53971 1.12523 6.44783 1.50922 6.44783 1.95022V1.95697C6.44783 2.47461 6.47282 4.28716 6.47462 4.41776L6.47472 4.4252C6.47472 4.5527 6.37088 4.65844 6.2424 4.65844H3.99907Z" fill="#20C05C"/>
</svg>
