<svg width="24" height="25" viewBox="0 0 24 25" fill="none" xmlns="http://www.w3.org/2000/svg">
<path d="M11.9993 0.509766C5.373 0.509766 0 5.90331 0 12.5581C0 17.8801 3.438 22.3957 8.20725 23.989C8.80725 24.0997 9.02625 23.7277 9.02625 23.4084C9.02625 23.1223 9.01575 22.3648 9.00975 21.3596C5.6715 22.0877 4.96725 19.7445 4.96725 19.7445C4.422 18.353 3.63525 17.9825 3.63525 17.9825C2.5455 17.2348 3.71775 17.2499 3.71775 17.2499C4.9215 17.3349 5.55525 18.4915 5.55525 18.4915C6.62625 20.3325 8.364 19.8009 9.048 19.4922C9.15675 18.7136 9.46725 18.1828 9.81 17.8816C7.14525 17.5774 4.344 16.5443 4.344 11.9278C4.344 10.6124 4.81125 9.53716 5.57925 8.69458C5.4555 8.38963 5.04375 7.16529 5.69625 5.50649C5.69625 5.50649 6.70425 5.18272 8.99625 6.74137C9.954 6.47407 10.98 6.34079 12.0007 6.33552C13.02 6.34079 14.0468 6.47407 15.0052 6.74137C17.2957 5.18272 18.3015 5.50649 18.3015 5.50649C18.9563 7.16529 18.5445 8.38963 18.4207 8.69458C19.1903 9.53716 19.6545 10.6124 19.6545 11.9278C19.6545 16.5556 16.8487 17.5744 14.1757 17.8726C14.6062 18.2445 14.9902 18.9794 14.9902 20.1036C14.9902 21.7142 14.9753 23.0131 14.9753 23.4084C14.9753 23.7307 15.1912 24.1057 15.8003 23.9875C20.565 22.3912 24 17.8786 24 12.5581C24 5.90331 18.627 0.509766 11.9993 0.509766Z" fill="#3E75C3"/>
</svg>
