<svg width="24" height="25" viewBox="0 0 24 25" fill="none" xmlns="http://www.w3.org/2000/svg">
<path d="M16.9688 8.04883C16.8726 8.04883 16.7764 8.05136 16.6802 8.05628C15.5573 7.14011 14.1652 6.64258 12.6914 6.64253C12.4578 6.64253 12.2273 6.6556 12.0002 6.68039C9.14361 6.9922 6.852 9.2126 6.43223 12.0358C5.77022 12.3495 5.1788 12.8102 4.71169 13.3846C4.00087 14.2587 3.60938 15.3603 3.60938 16.4864C3.60938 16.8879 3.65808 17.2782 3.7492 17.6521C1.66284 17.5393 0 15.8066 0 13.6926C0 11.7306 1.43241 10.0968 3.30628 9.7818C3.62358 7.45089 5.62716 5.64888 8.04375 5.64888C8.35444 5.64888 8.66363 5.67907 8.96761 5.73888C9.78754 4.88342 10.8463 4.31708 12 4.10792C12.3286 4.04834 12.6648 4.01758 13.0055 4.01758C15.6187 4.01758 17.819 5.81786 18.4321 8.24322C17.9583 8.11525 17.4666 8.04883 16.9688 8.04883Z" fill="#0A49B2"/>
<path d="M7.77023 13.0537C7.76977 13.026 7.76953 12.9983 7.76953 12.9707C7.76953 10.4914 9.61228 8.43478 12 8.09766C12.226 8.06573 12.4567 8.04883 12.6914 8.04883C14.0249 8.04883 15.2824 8.58166 16.2056 9.52459C16.457 9.47837 16.7123 9.45508 16.9688 9.45508C19.0768 9.45508 20.8286 11.0091 21.1387 13.0317C22.7657 13.3392 24 14.7713 24 16.4863C24 18.4248 22.4229 20.002 20.4844 20.002L8.53125 20.0019C6.59273 20.0019 5.01562 18.4248 5.01562 16.4863C5.01562 14.809 6.19631 13.4023 7.77023 13.0537Z" fill="#0A49B2"/>
</svg>
