<svg width="825" height="234" viewBox="0 0 825 234" fill="none" xmlns="http://www.w3.org/2000/svg">
<g clip-path="url(#clip0_2_2)">
<path d="M46.4601 67.3717H4.56984V54.4238H106.82V67.3717H65.1203V178H46.4601V67.3717ZM165.269 179.904C157.144 179.904 151.051 179.587 146.989 178.952C142.927 178.444 138.865 177.238 134.803 175.334C130.614 173.43 127.567 170.384 125.663 166.195C123.759 161.879 122.807 156.103 122.807 148.867V116.878C122.807 111.166 123.505 106.152 124.902 101.836C126.298 97.52 128.139 94.1561 130.424 91.7442C132.328 89.5862 135.184 87.936 138.992 86.7935C142.927 85.5241 146.926 84.699 150.988 84.3182C155.558 84.0643 160.318 83.9374 165.269 83.9374C171.869 83.9374 176.82 84.1278 180.121 84.5086C183.548 84.7625 187.166 85.3972 190.974 86.4127C194.909 87.5552 197.956 89.2689 200.114 91.5538C202.272 93.8387 204.112 97.1392 205.636 101.455C207.032 105.898 207.73 111.039 207.73 116.878V148.867C207.73 159.657 205.255 167.527 200.304 172.478C198.273 174.509 195.353 176.096 191.545 177.238C187.737 178.381 183.802 179.142 179.74 179.523C174.916 179.777 170.092 179.904 165.269 179.904ZM165.269 168.67C170.6 168.67 174.472 168.543 176.884 168.289C179.295 168.035 181.644 167.337 183.929 166.195C186.214 165.179 187.8 163.529 188.689 161.244C189.705 158.832 190.212 155.532 190.212 151.343V114.022C190.212 108.31 189.514 104.184 188.118 101.646C186.721 98.9798 184.31 97.2661 180.882 96.5045C177.582 95.6159 172.377 95.1716 165.269 95.1716C158.16 95.1716 152.892 95.6159 149.465 96.5045C146.164 97.2661 143.816 98.9798 142.419 101.646C141.023 104.184 140.325 108.31 140.325 114.022V151.343C140.325 155.532 140.769 158.832 141.658 161.244C142.673 163.529 144.323 165.179 146.608 166.195C148.893 167.337 151.242 168.035 153.654 168.289C156.065 168.543 159.937 168.67 165.269 168.67ZM266.445 179.904C254.639 179.904 246.325 177.81 241.501 173.621C236.804 169.305 234.456 162.577 234.456 153.437V85.8415H251.593V152.485C251.593 154.897 251.783 156.864 252.164 158.388C252.672 159.784 253.497 161.244 254.639 162.767C256.924 166.068 262.51 167.718 271.395 167.718C280.789 167.718 287.39 166.829 291.198 165.052C294.879 163.275 296.72 160.038 296.72 155.341V85.8415H313.857V178H296.72V166.766C295.07 175.525 284.978 179.904 266.445 179.904ZM343.607 85.8415H359.792V100.884C359.792 97.9643 361.061 95.2351 363.6 92.6963C366.139 90.0305 369.376 87.936 373.311 86.4127C377.246 84.7625 381.118 83.9374 384.926 83.9374H393.304V98.599H383.784C375.659 98.599 369.757 99.678 366.075 101.836C362.521 103.867 360.744 107.612 360.744 113.07V178H343.607V85.8415ZM410.362 85.8415H427.499V97.0757C429.276 88.3168 439.368 83.9374 457.774 83.9374C469.58 83.9374 477.831 86.0954 482.528 90.4113C487.351 94.6004 489.763 101.265 489.763 110.404V178H472.626V111.356C472.626 108.945 472.436 106.977 472.055 105.454C471.674 103.93 470.913 102.407 469.77 100.884C467.231 97.7104 461.582 96.1236 452.824 96.1236C446.096 96.1236 440.891 96.6314 437.21 97.6469C433.656 98.5355 431.117 100.059 429.594 102.217C428.197 104.375 427.499 107.421 427.499 111.356V178H410.362V85.8415ZM517.99 157.436H540.078V178H517.99V157.436ZM568.231 85.8415H585.368V97.0757C587.146 88.3168 597.491 83.9374 616.405 83.9374C631.765 83.9374 641.349 88.1264 645.157 96.5045C646.3 92.4424 649.727 89.3323 655.439 87.1744C661.279 85.0164 668.387 83.9374 676.765 83.9374C688.19 83.9374 696.251 86.0954 700.947 90.4113C705.644 94.6004 707.992 101.265 707.992 110.404V178H690.856V111.547C690.856 109.135 690.665 107.167 690.284 105.644C689.904 104.121 689.142 102.598 687.999 101.074C685.461 97.9008 679.812 96.314 671.053 96.314C664.325 96.314 659.311 96.7583 656.011 97.6469C652.71 98.5355 650.425 100.059 649.156 102.217C648.013 104.375 647.442 107.485 647.442 111.547V178H630.305V111.547C630.305 109.135 630.115 107.167 629.734 105.644C629.353 104.121 628.591 102.598 627.449 101.074C624.91 97.9008 619.325 96.314 610.693 96.314C603.711 96.314 598.443 96.7583 594.889 97.6469C591.335 98.5355 588.859 100.059 587.463 102.217C586.067 104.248 585.368 107.358 585.368 111.547V178H568.231V85.8415ZM776.473 179.904C748.292 179.904 734.202 170.511 734.202 151.723V115.355C734.202 104.184 737.376 96.1871 743.723 91.3634C750.197 86.4127 760.606 83.9374 774.95 83.9374C788.532 83.9374 798.307 86.2858 804.273 90.9826C810.366 95.6793 813.413 103.804 813.413 115.355V135.729H751.529V149.629C751.529 155.976 753.751 160.546 758.194 163.338C762.637 166.131 769.491 167.527 778.758 167.527C787.517 167.527 797.863 166.004 809.795 162.958V176.096C798.116 178.635 787.009 179.904 776.473 179.904ZM796.276 124.495V110.024C796.276 104.438 794.562 100.63 791.135 98.599C787.834 96.441 782.122 95.362 773.998 95.362C766.128 95.362 760.415 96.441 756.861 98.599C753.307 100.63 751.529 104.438 751.529 110.024V124.495H796.276Z" fill="#F3B331"/>
</g>
<defs>
<clipPath id="clip0_2_2">
<rect width="825" height="234" fill="white"/>
</clipPath>
</defs>
</svg>
