<svg fill="none" xmlns="http://www.w3.org/2000/svg" viewBox="0 -4.32 270.33 335.55"><g clip-path="url(#a)"><path fill-rule="evenodd" clip-rule="evenodd" d="M148.831 107.012v26.203c0 7.659-6.125 13.892-13.71 13.892-7.564 0-13.711-6.211-13.711-13.892v-26.203c0-7.68 6.147-13.892 13.711-13.892 3.792 0 7.236 1.558 9.699 4.052a13.98 13.98 0 0 1 4.011 9.84" fill="#000"/><path d="M193.667 149.066a26.8 26.8 0 0 0-19.116 8.014c-10.55 10.708-10.55 28.029 0 38.715l41.676 42.21v38.426H54.057V130.966c0-44.459 35.572-80.502 79.472-80.502h3.247c21.95 0 41.807 9.016 56.193 23.576 14.386 14.582 23.279 34.685 23.279 56.926l35.508 35.977 9.285 9.394 9.264 9.395v-53.096c0-37.803-15.127-72.02-39.583-96.799-24.784-25.135-59.114-40.518-96.997-40.14C60.182-3.546 0 59.28 0 133.793v170.043c0 15.117 12.097 27.384 27.028 27.384h216.249c7.454 0 14.233-3.05 19.116-8.015 4.708-4.764 7.672-11.265 7.89-18.478V215.32l-57.5-58.24a26.8 26.8 0 0 0-19.116-8.014" fill="#F05B22"/><path d="M155.239 306.13v-4.63h-3.248a17.7 17.7 0 0 0-1.089-4.163l2.811-1.648-2.288-4.007-2.79 1.625a17.3 17.3 0 0 0-3.008-3.072l1.613-2.828-3.967-2.293-1.592 2.805a17 17 0 0 0-4.141-1.157v-3.184h-4.577v3.161c-1.461.201-2.856.557-4.185 1.114l-1.526-2.739-3.967 2.316 1.526 2.693a17.2 17.2 0 0 0-3.096 3.095l-2.637-1.536-2.289 4.007 2.616 1.536a17.4 17.4 0 0 0-1.134 4.275h-3.247v4.63h3.247a17.7 17.7 0 0 0 1.134 4.275l-2.812 1.647 2.289 4.008 2.833-1.648a17.2 17.2 0 0 0 3.096 3.095l-1.635 2.871 3.945 2.316 1.657-2.894c1.329.534 2.724.912 4.185 1.113v3.384h4.577v-3.406a16.4 16.4 0 0 0 4.141-1.158l1.701 2.983 3.945-2.315-1.722-3.006a16.6 16.6 0 0 0 3.008-3.072l2.986 1.759 2.289-4.008-3.008-1.758a17.5 17.5 0 0 0 1.09-4.163h3.269zm-7.651-2.315c0 6.946-5.58 12.601-12.424 12.601-6.866 0-12.446-5.655-12.446-12.601s5.58-12.601 12.446-12.601c6.844 0 12.424 5.655 12.424 12.601" fill="#000"/></g><defs><clipPath id="a"><path fill="#fff" d="M0 0h1126.94v335.5H0z"/></clipPath></defs></svg>